<svg xmlns="http://www.w3.org/2000/svg" xmlns:xlink="http://www.w3.org/1999/xlink" viewBox="0 0 111.89 113.98"><defs><style>.cls-1{fill:url(#linear-gradient);}.cls-2{fill:url(#linear-gradient-2);}.cls-3{fill:url(#linear-gradient-3);}.cls-4{fill:url(#linear-gradient-4);}.cls-5{fill:url(#linear-gradient-5);}.cls-6{fill:#a8a8a8;}</style><linearGradient id="linear-gradient" x1="81.91" y1="62.81" x2="17.56" y2="100.76" gradientUnits="userSpaceOnUse"><stop offset="0" stop-color="#f4f4f4"/><stop offset="0.99" stop-color="#fff"/><stop offset="1" stop-color="#fff"/></linearGradient><linearGradient id="linear-gradient-2" x1="55.95" y1="96.05" x2="111.89" y2="96.05" gradientUnits="userSpaceOnUse"><stop offset="0" stop-color="#e0e0e0"/><stop offset="1" stop-color="#c6c6c6"/></linearGradient><linearGradient id="linear-gradient-3" x1="4999.03" y1="96.05" x2="5068.41" y2="96.05" gradientTransform="matrix(-1, 0, 0, 1, 5054.98, 0)" gradientUnits="userSpaceOnUse"><stop offset="0" stop-color="#e0e0e0"/><stop offset="1" stop-color="#f4f4f4"/></linearGradient><linearGradient id="linear-gradient-4" x1="60.79" y1="36.17" x2="22.91" y2="-2.15" gradientUnits="userSpaceOnUse"><stop offset="0" stop-color="#e0e0e0"/><stop offset="0.16" stop-color="#d1d1d1"/><stop offset="0.46" stop-color="#bababa"/><stop offset="0.75" stop-color="#adadad"/><stop offset="1" stop-color="#a8a8a8"/></linearGradient><linearGradient id="linear-gradient-5" x1="70.66" y1="94.1" x2="31.03" y2="-5.86" gradientUnits="userSpaceOnUse"><stop offset="0" stop-color="#f4f4f4"/><stop offset="0.3" stop-color="#ebebeb"/><stop offset="0.77" stop-color="#d4d4d4"/><stop offset="1" stop-color="#c6c6c6"/></linearGradient></defs><g id="Layer_2" data-name="Layer 2"><g id="Layer_1-2" data-name="Layer 1"><polygon class="cls-1" points="111.89 78.12 55.95 110.48 0 78.12 55.84 45.76 111.89 78.12"/><polygon class="cls-2" points="111.89 78.12 111.89 81.61 55.95 113.98 55.95 110.48 111.89 78.12"/><polygon class="cls-3" points="0 78.12 0 81.61 55.95 113.98 55.95 110.48 0 78.12"/><path class="cls-4" d="M56.72,3.92c-7.94-4.59-15.13-5-20.32-2L29.32,6c5.19-3,12.39-2.59,20.32,2,15.78,9.11,28.52,31.19,28.47,49.31,0,9-3.21,15.35-8.33,18.33l7.07-4.12c5.13-3,8.31-9.32,8.34-18.32C85.24,35.11,72.5,13,56.72,3.92Z"/><path class="cls-5" d="M49.64,8c15.78,9.11,28.52,31.19,28.47,49.31S65.23,82.79,49.46,73.68,20.94,42.49,21,24.36,33.87-1.08,49.64,8Z"/><path class="cls-6" d="M49.58,64.2A9.13,9.13,0,0,1,46,60.83a8.06,8.06,0,0,1-1.09-4V55.51A3,3,0,0,1,46,52.77c.72-.47,1.91-.23,3.55.72a9.09,9.09,0,0,1,3.49,3.34,8.06,8.06,0,0,1,1.09,4v1.32a3,3,0,0,1-1.09,2.75C52.34,65.35,51.18,65.12,49.58,64.2ZM48,48.64,45.68,28V15l7.79,4.49v13l-2.23,18Z"/></g></g></svg>