<svg xmlns="http://www.w3.org/2000/svg" xmlns:xlink="http://www.w3.org/1999/xlink" width="192" height="192" viewBox="0 0 192 192"><defs><style>.a{fill:none;}.b{fill:url(#a);}.c{fill:url(#b);}.d{fill:url(#c);}.e{opacity:0.5;fill:url(#d);}.f{fill:url(#e);}.g{opacity:0.6;}.h{fill:url(#f);}.i{fill:url(#g);}</style><linearGradient id="a" x1="6.23" y1="-30.75" x2="104.36" y2="139.2" gradientUnits="userSpaceOnUse"><stop offset="0" stop-color="#f4f4f4"/><stop offset="0.69" stop-color="#e0e0e0"/><stop offset="0.94" stop-color="#c4c4c4"/><stop offset="1" stop-color="#a8a8a8"/></linearGradient><linearGradient id="b" x1="116.56" y1="136.98" x2="161.55" y2="136.98" gradientUnits="userSpaceOnUse"><stop offset="0" stop-color="#a8a8a8"/><stop offset="1" stop-color="#c6c6c6"/></linearGradient><linearGradient id="c" x1="36.24" y1="24.86" x2="99.61" y2="134.62" gradientUnits="userSpaceOnUse"><stop offset="0" stop-color="#bdbdbd"/><stop offset="1" stop-color="#a3a3a3"/></linearGradient><linearGradient id="d" x1="83.82" y1="-111.74" x2="83.82" y2="234.77" gradientTransform="translate(44.31 -33.05) rotate(30)" gradientUnits="userSpaceOnUse"><stop offset="0" stop-color="#6e6e6e"/><stop offset="0.48" stop-color="#787878" stop-opacity="0.69"/><stop offset="0.72" stop-color="#818181" stop-opacity="0.41"/><stop offset="1" stop-color="#8c8c8c" stop-opacity="0.1"/></linearGradient><linearGradient id="e" x1="63.36" y1="172" x2="133.29" y2="131.63" gradientUnits="userSpaceOnUse"><stop offset="0" stop-color="#565656" stop-opacity="0.05"/><stop offset="1" stop-color="#171717" stop-opacity="0.1"/></linearGradient><linearGradient id="f" x1="58.93" y1="23.06" x2="120.86" y2="130.32" gradientUnits="userSpaceOnUse"><stop offset="0" stop-color="#fff" stop-opacity="0"/><stop offset="0.12" stop-color="#fff" stop-opacity="0.01"/><stop offset="0.22" stop-color="#fff" stop-opacity="0.05"/><stop offset="0.31" stop-color="#fff" stop-opacity="0.12"/><stop offset="0.4" stop-color="#fff" stop-opacity="0.21"/><stop offset="0.48" stop-color="#fff" stop-opacity="0.34"/><stop offset="0.56" stop-color="#fff" stop-opacity="0.49"/><stop offset="0.64" stop-color="#fff" stop-opacity="0.66"/><stop offset="0.71" stop-color="#fff" stop-opacity="0.86"/><stop offset="0.73" stop-color="#fff" stop-opacity="0.92"/><stop offset="1" stop-color="#fff"/></linearGradient><linearGradient id="g" x1="38.07" y1="-49.2" x2="136.2" y2="120.76" xlink:href="#a"/></defs><rect class="a" width="192" height="192"/><path class="b" d="M30.45,43.09c0,28.88,21,64.43,46.94,79.4,13.55,7.82,25.75,8.46,34.32,3.18h0L123.3,119l-2.85-4.65c-7.78,4.16-18.53,3.31-30.4-3.54C66.29,97.09,47,64.51,47,38c0-12.22,4.11-21,10.88-25.56L55,7.79,43.45,14.47v0c-8.06,4.74-13,14.59-13,28.6"/><path class="c" d="M161.55,155.81s.26,2.07-4.54,5.37-6.55,2.83-6.55,2.83l-33.9-45.88,11.09-8.2Z"/><path class="d" d="M90.43,110.52c-23.76-13.72-43-46.29-43-72.76,0-9.1,2.27-16.29,6.22-21.25C42,18.33,34.23,28.62,34.23,45.37c0,26.47,19.26,59,43,72.76,15.6,9,29.25,7.65,36.8-1.84-6.78,1.06-14.9-.73-23.62-5.77"/><ellipse class="e" cx="83.82" cy="66.16" rx="34.92" ry="60.48" transform="translate(-21.85 50.78) rotate(-30)"/><path class="f" d="M161,180l-30.8-17.81c2.64-2.76,2.62-5.66-1.85-8.24l-.24-.13L62.81,116.16,62.6,116c-6.23-3.6-14-2.53-20.2,1.07s-8.59,8.35-2.36,12L105.83,167c4,2.33,8.71,2.46,13.19,1.29l31.16,18h0C153.18,188,164,181.75,161,180Z"/><g class="g"><path class="h" d="M102.92,121.9c-6,0-12.53-2-19.35-5.92-23.72-13.7-43-47.12-43-74.51,0-13.37,4.54-23.36,12.78-28.11s19.16-3.7,30.74,3c23.72,13.69,43,47.12,43,74.51,0,13.37-4.54,23.36-12.78,28.11A22.45,22.45,0,0,1,102.92,121.9ZM64.72,11.43a21.46,21.46,0,0,0-10.89,2.79c-7.92,4.57-12.28,14.25-12.28,27.25,0,27.07,19.08,60.11,42.52,73.64,11.26,6.51,21.82,7.57,29.74,3s12.28-14.25,12.28-27.25c0-27.07-19.08-60.11-42.52-73.64C76.91,13.37,70.49,11.43,64.72,11.43Z"/></g><path class="i" d="M136.86,90c0-28.88-21-64.43-47-79.4C76.36,2.78,64.16,2.14,55.59,7.42h0L44,14.09l2.86,4.65c7.78-4.16,18.52-3.31,30.39,3.54,23.76,13.72,43,46.3,43,72.76,0,11.65-3.73,20.18-9.94,24.9-.3.23-2.82,1.75-3.13,2l5.08,3.4,11.57-6.68v0c8.05-4.74,13-14.59,13-28.6"/></svg>